<?xml version="1.0" standalone="no"?>
<!DOCTYPE svg PUBLIC "-//W3C//DTD SVG 20010904//EN"
 "http://www.w3.org/TR/2001/REC-SVG-20010904/DTD/svg10.dtd">
<svg version="1.0" xmlns="http://www.w3.org/2000/svg"
 width="582.000000pt" height="582.000000pt" viewBox="0 0 582.000000 582.000000"
 preserveAspectRatio="xMidYMid meet">
<metadata>
Created by potrace 1.14, written by Peter Selinger 2001-2017
</metadata>
<g transform="translate(0.000000,582.000000) scale(0.100000,-0.100000)"
fill="#000000" stroke="none">
<path d="M2830 4150 c0 -3 -20 -5 -45 -4 -25 1 -47 -2 -50 -6 -2 -4 -18 -6
-35 -5 -16 1 -30 -2 -30 -8 0 -5 -6 -7 -14 -4 -8 3 -17 3 -20 -1 -4 -3 -14 -7
-24 -9 -28 -6 -35 -8 -92 -34 -30 -13 -58 -23 -62 -21 -5 1 -8 -2 -8 -7 0 -5
-13 -14 -30 -21 -16 -7 -30 -17 -30 -23 0 -6 -3 -8 -6 -4 -4 3 -13 -1 -21 -9
-8 -8 -19 -12 -24 -9 -5 4 -9 -1 -9 -9 0 -8 -9 -17 -20 -21 -11 -3 -29 -18
-40 -32 -11 -14 -20 -23 -20 -19 0 4 -7 1 -15 -8 -8 -8 -15 -20 -15 -26 0 -6
-4 -8 -10 -5 -5 3 -10 -1 -10 -9 0 -9 -7 -16 -15 -16 -8 0 -15 -7 -15 -15 0
-8 -9 -20 -20 -27 -11 -7 -20 -18 -20 -25 0 -7 -5 -13 -11 -13 -5 0 -8 -4 -5
-9 3 -5 -1 -12 -10 -15 -9 -4 -14 -9 -11 -12 3 -4 -4 -15 -16 -26 -12 -11 -16
-17 -9 -13 6 3 12 4 12 1 0 -2 -6 -11 -12 -18 -19 -19 -52 -91 -49 -105 1 -7
-2 -13 -7 -13 -5 0 -9 -6 -10 -12 -2 -29 -9 -47 -22 -64 -12 -15 -12 -16 -1
-9 11 6 12 5 5 -6 -14 -23 -23 -74 -29 -166 -2 -34 -6 -67 -10 -73 -3 -5 -3
-10 2 -10 4 0 8 -29 8 -65 -1 -36 2 -65 6 -65 3 0 5 -11 4 -25 -2 -14 1 -27 5
-30 5 -3 7 -12 3 -20 -3 -8 0 -15 7 -15 6 0 9 -4 6 -9 -4 -5 -1 -22 5 -38 7
-15 14 -36 16 -46 1 -10 12 -37 23 -59 11 -23 20 -48 20 -55 0 -8 5 -11 10 -8
6 3 10 -3 10 -14 0 -12 5 -21 10 -21 6 0 10 -7 10 -15 0 -8 4 -15 8 -15 5 0
15 -12 23 -27 8 -16 22 -35 31 -44 10 -9 18 -21 18 -27 0 -5 7 -13 16 -16 8
-3 12 -11 8 -17 -4 -7 -3 -9 3 -6 5 4 19 -4 30 -16 32 -36 92 -87 102 -87 5 0
11 -4 13 -9 4 -10 53 -41 118 -73 25 -12 48 -26 51 -30 3 -5 10 -8 15 -6 5 1
19 -3 30 -10 12 -6 24 -8 28 -5 3 3 6 1 6 -5 0 -7 3 -11 8 -10 14 3 87 -15
100 -25 8 -6 12 -6 12 3 0 10 3 10 15 0 8 -7 15 -10 15 -6 0 3 11 1 24 -4 15
-5 27 -5 35 3 8 8 11 8 11 -1 0 -6 7 -9 15 -6 8 4 22 1 29 -5 8 -7 17 -8 19
-3 3 4 31 8 61 7 31 0 56 3 56 8 0 4 4 5 10 2 5 -3 19 -1 30 5 14 8 20 8 20 0
0 -7 7 -7 23 1 12 7 23 12 25 11 1 -1 3 -2 5 -1 1 0 9 2 17 4 79 19 150 46
150 57 0 5 5 6 10 3 6 -3 10 -2 10 3 0 5 6 9 13 9 6 0 31 12 54 26 24 15 47
27 53 27 6 0 8 4 5 10 -3 6 1 10 9 10 9 0 16 5 16 10 0 6 9 10 21 10 11 0 18
4 15 9 -3 5 10 19 29 32 19 13 35 29 35 36 0 6 5 15 12 19 7 5 9 2 4 -7 -4 -8
1 -3 11 11 10 14 32 40 50 59 18 18 30 37 28 41 -3 4 2 11 11 14 8 3 12 10 9
16 -3 5 -1 10 5 10 6 0 18 16 26 35 8 19 19 35 25 35 5 0 7 5 4 11 -4 5 1 19
11 30 9 10 14 19 9 19 -4 0 -2 6 4 13 6 8 8 17 4 20 -3 4 -1 7 5 7 7 0 11 3
11 8 -1 4 0 9 1 12 1 3 3 12 5 20 1 8 8 35 15 60 17 60 21 87 21 133 -1 26 3
36 10 31 8 -5 9 -2 1 12 -6 11 -7 27 -1 41 5 13 5 23 1 23 -4 0 -8 24 -9 53
-2 77 -9 129 -20 157 -6 14 -8 31 -6 38 3 6 0 12 -7 12 -6 0 -9 4 -6 8 3 5 -2
21 -9 36 -8 16 -12 32 -9 37 3 5 -1 12 -9 15 -7 2 -14 11 -15 19 -1 8 -3 22
-4 30 -1 8 -7 15 -15 15 -7 0 -12 3 -11 8 4 14 -14 52 -24 52 -6 0 -9 3 -5 6
3 4 1 12 -6 19 -7 7 -21 25 -32 41 -21 30 -143 154 -187 191 -15 12 -29 19
-32 16 -3 -4 -6 0 -6 7 0 7 -3 11 -6 8 -3 -4 -14 2 -25 13 -10 10 -26 19 -34
19 -8 0 -15 4 -15 8 0 5 -18 15 -40 22 -22 7 -40 17 -40 22 0 5 -3 7 -8 4 -4
-2 -29 6 -54 18 -26 13 -45 19 -42 14 7 -11 -3 -10 -25 2 -24 12 -67 21 -113
23 -21 1 -38 4 -38 7 0 3 -32 5 -70 5 -39 0 -70 -2 -70 -5z m113 -156 c26 1
47 -1 47 -5 0 -3 14 -5 30 -3 17 2 30 -1 30 -6 0 -5 8 -9 18 -9 15 0 47 -6 62
-11 3 -1 8 -2 13 -1 4 0 7 -3 7 -8 0 -6 9 -8 20 -6 11 2 20 0 20 -4 0 -4 16
-13 35 -21 19 -8 35 -18 35 -24 0 -5 3 -6 7 -3 3 4 12 -1 20 -11 9 -10 11 -11
7 -2 -7 13 -6 13 11 0 11 -8 27 -22 36 -30 38 -33 49 -40 59 -40 6 0 8 -4 5
-10 -3 -5 1 -10 9 -10 9 0 15 -3 14 -7 -1 -5 14 -26 34 -48 63 -68 77 -85 73
-85 -3 0 4 -15 15 -32 11 -18 23 -41 26 -50 4 -10 10 -18 15 -18 5 0 6 -7 3
-15 -4 -8 -1 -15 5 -15 6 0 11 -6 11 -14 0 -8 5 -27 12 -43 6 -15 12 -36 13
-45 2 -10 4 -20 5 -23 1 -3 3 -9 4 -14 0 -5 4 -13 8 -17 4 -4 3 -13 -3 -21 -9
-10 -8 -13 1 -13 8 0 11 -9 8 -25 -3 -14 -2 -25 1 -25 10 0 7 -95 -4 -102 -6
-5 -5 -8 3 -8 7 0 10 -4 7 -10 -5 -9 -16 -67 -18 -97 0 -7 -3 -13 -6 -13 -3 0
-7 -17 -9 -37 -1 -20 -6 -39 -10 -43 -7 -5 -11 -19 -16 -48 -1 -7 -8 -18 -14
-24 -7 -7 -12 -18 -12 -25 0 -7 -5 -13 -12 -13 -6 0 -8 -3 -5 -6 4 -4 -3 -20
-14 -35 -11 -16 -17 -29 -13 -29 4 0 -5 -11 -20 -25 -14 -13 -26 -27 -26 -32
0 -11 -115 -119 -163 -152 -58 -40 -137 -83 -137 -75 0 3 -10 0 -23 -9 -12 -8
-38 -18 -57 -23 -19 -4 -38 -9 -42 -10 -5 -1 -9 -3 -10 -4 -4 -4 -37 -8 -93
-12 -28 -2 -56 -7 -63 -12 -6 -4 -12 -3 -12 2 0 10 -30 9 -48 -2 -6 -4 -12 -3
-12 2 0 6 -15 10 -32 11 -18 0 -44 3 -58 6 -14 3 -38 9 -55 11 -16 3 -32 10
-33 15 -2 5 -8 7 -13 3 -5 -3 -15 -2 -21 3 -7 4 -15 8 -18 8 -11 1 -87 40
-111 56 -14 10 -29 16 -33 12 -3 -3 -6 1 -6 11 0 9 -4 14 -10 11 -5 -3 -10 -1
-10 5 0 6 -4 9 -8 6 -5 -3 -15 4 -22 15 -8 10 -20 19 -28 19 -7 0 -11 4 -7 9
3 5 -4 12 -15 16 -11 3 -20 13 -20 21 0 8 -7 14 -16 14 -8 0 -13 4 -10 8 3 5
-4 15 -15 22 -10 8 -19 19 -19 25 0 6 -8 18 -17 27 -25 23 -37 41 -41 58 -2 8
-8 17 -13 18 -5 2 -7 8 -3 13 3 5 0 9 -6 9 -7 0 -10 6 -7 14 3 8 -1 17 -9 20
-8 3 -13 9 -12 13 1 4 -5 31 -15 58 -9 28 -18 64 -21 80 -2 17 -5 30 -6 30 -3
0 -9 43 -13 103 -3 41 -1 62 7 62 6 0 4 5 -4 10 -8 5 -10 10 -4 10 7 0 9 11 6
25 -2 14 1 32 8 40 8 10 9 15 1 15 -7 0 -8 7 -1 23 11 28 24 80 22 90 -1 4 2
7 6 7 5 0 9 7 9 16 0 23 85 184 95 178 4 -3 8 2 8 12 0 9 22 38 49 64 27 27
47 51 44 54 -4 3 -1 6 5 6 6 0 20 10 32 22 11 12 20 18 20 14 0 -4 7 -1 15 6
33 30 45 38 55 38 5 0 10 5 10 11 0 6 6 9 14 6 7 -3 20 3 29 14 9 10 25 19 34
19 10 0 27 7 37 15 10 8 23 12 28 9 5 -3 14 -1 21 5 7 5 25 12 40 15 15 3 37
8 50 11 12 2 46 6 75 9 30 2 56 7 60 10 3 4 8 2 11 -2 3 -5 27 -8 54 -8z"/>
<path d="M2816 3683 c-3 -3 -16 -8 -28 -9 -39 -6 -52 -10 -74 -22 -12 -6 -24
-8 -28 -5 -3 3 -6 1 -6 -6 0 -7 -4 -10 -8 -7 -5 3 -18 -4 -30 -14 -12 -11 -26
-20 -31 -20 -5 0 -16 -9 -24 -20 -8 -11 -17 -17 -20 -13 -4 3 -7 -2 -7 -12 0
-10 -3 -15 -7 -12 -11 12 -94 -113 -95 -143 0 -3 -4 -10 -9 -16 -23 -28 -41
-166 -26 -198 7 -14 6 -16 -4 -11 -7 5 -10 4 -6 -2 8 -12 19 -63 19 -85 -1
-10 3 -18 9 -18 5 0 9 -9 9 -19 0 -11 5 -23 10 -26 6 -3 10 -15 10 -26 0 -10
4 -19 8 -19 4 0 16 -14 26 -31 21 -36 83 -99 96 -99 6 0 10 -4 10 -10 0 -5 7
-10 15 -10 7 0 19 -8 24 -17 6 -10 11 -14 11 -10 0 4 10 2 23 -5 12 -7 25 -12
29 -13 3 0 10 -3 14 -7 4 -5 18 -8 31 -8 12 0 23 -3 23 -7 0 -5 11 -9 25 -9
16 -1 22 2 18 10 -5 8 -3 8 8 0 17 -14 59 -25 59 -15 0 3 24 6 54 6 30 0 52 3
49 8 -2 4 4 7 15 7 10 0 22 3 26 7 3 4 13 8 20 9 34 5 56 16 50 26 -5 7 -1 9
9 5 10 -3 17 -3 17 2 0 5 9 11 21 14 14 4 18 10 13 18 -5 8 -2 11 7 7 15 -5
51 26 42 36 -4 3 1 6 10 6 9 0 19 11 23 25 3 14 9 23 13 20 9 -5 71 116 71
137 0 8 5 19 12 26 9 9 9 12 -2 12 -8 1 -4 7 10 14 14 8 31 11 40 7 8 -4 26
-5 40 -1 14 4 32 3 41 -1 23 -12 36 8 36 52 0 19 3 41 7 47 4 7 3 12 -2 12 -5
0 -8 10 -8 23 1 13 -4 21 -13 19 -7 -1 -20 3 -29 10 -13 11 -14 11 -7 -2 8
-13 7 -13 -8 -1 -9 7 -17 10 -17 5 0 -5 -17 -8 -37 -8 -56 3 -56 2 -50 24 3
13 1 18 -6 13 -6 -4 -8 0 -4 10 3 9 2 19 -4 23 -6 3 -8 12 -5 20 3 8 1 14 -4
14 -6 0 -10 9 -10 21 0 11 -4 17 -10 14 -5 -3 -10 -1 -10 4 0 19 -3 25 -22 45
-10 11 -18 26 -18 33 0 8 -4 11 -10 8 -5 -3 -10 2 -10 11 0 10 -3 15 -6 11 -8
-8 -34 18 -34 33 0 6 -4 8 -10 5 -5 -3 -10 -1 -10 5 0 6 -4 8 -10 5 -5 -3 -10
1 -10 10 0 9 -4 14 -9 10 -5 -3 -12 -1 -16 5 -4 6 -11 8 -16 5 -5 -4 -9 1 -9
10 0 9 -4 13 -10 10 -5 -3 -23 1 -40 10 -16 8 -30 13 -30 10 0 -3 -10 0 -22 6
-25 13 -171 23 -182 12z m21 -150 c-3 -5 23 -8 56 -7 34 0 69 -3 77 -7 85 -40
110 -54 114 -66 3 -8 10 -12 14 -9 5 3 15 -7 23 -22 8 -15 21 -35 29 -45 8
-10 13 -19 11 -20 -2 -1 2 -13 9 -27 16 -29 20 -43 21 -90 3 -71 -1 -111 -10
-106 -4 3 -8 -2 -7 -12 0 -9 -14 -42 -31 -72 -18 -30 -33 -51 -33 -47 0 4 -11
-4 -25 -19 -14 -15 -25 -23 -25 -18 0 5 -5 2 -10 -6 -5 -8 -13 -15 -17 -16 -4
0 -21 -6 -37 -13 -16 -6 -36 -9 -43 -7 -8 3 -11 1 -8 -4 3 -6 -1 -10 -9 -11
-26 -1 -76 -1 -78 1 -4 2 -58 11 -75 12 -7 1 -13 5 -13 10 0 4 -3 7 -7 6 -16
-3 -49 17 -74 44 -15 15 -29 24 -33 21 -3 -3 -6 1 -6 10 0 8 -4 17 -8 19 -15
6 -52 75 -52 97 0 12 -4 20 -8 17 -4 -3 -7 26 -7 63 2 75 28 160 60 194 11 12
19 25 18 29 -2 5 1 8 5 8 8 0 24 12 70 50 6 6 12 8 12 5 0 -3 13 1 29 9 16 9
31 13 33 10 3 -2 11 2 18 11 13 15 25 21 17 8z"/>
<path d="M3190 2102 c0 -5 -18 -9 -40 -7 -22 1 -37 -1 -34 -6 3 -5 2 -9 -3 -9
-4 0 -7 -81 -5 -180 l3 -181 -58 33 c-55 31 -63 33 -163 33 -89 0 -112 -4
-151 -23 -46 -23 -133 -98 -135 -117 -3 -23 -17 -55 -25 -55 -4 0 -6 -9 -4
-20 2 -11 0 -20 -5 -20 -5 0 -7 -6 -4 -14 3 -8 0 -17 -5 -21 -6 -3 -8 -12 -4
-18 12 -20 12 -37 0 -37 -7 0 -6 -4 3 -10 8 -5 11 -12 8 -16 -4 -4 -3 -15 3
-25 7 -14 6 -19 -2 -19 -8 0 -7 -6 3 -17 9 -10 13 -24 11 -30 -3 -7 0 -13 7
-13 6 0 8 -4 5 -10 -3 -5 -1 -10 4 -10 6 0 11 -6 11 -14 0 -40 116 -119 195
-134 109 -19 210 3 292 63 20 16 21 15 20 -17 l-2 -33 78 -1 78 -2 -3 399 c-2
259 0 400 7 403 7 3 7 5 0 5 -6 1 -9 27 -9 60 1 58 1 59 -25 56 -14 -2 -32 2
-38 7 -9 7 -13 7 -13 0z m-224 -440 c35 -3 111 -60 128 -96 10 -20 16 -60 16
-99 0 -56 -4 -70 -31 -106 -70 -97 -232 -108 -307 -21 -63 73 -62 195 1 264
47 51 97 66 193 58z"/>
<path d="M4864 2091 c-12 -9 -11 -214 1 -223 6 -5 6 -8 -2 -8 -7 0 -10 -10 -7
-26 6 -35 7 -38 4 -44 -1 -3 -3 -31 -5 -62 -1 -38 1 -55 8 -51 6 4 7 1 2 -7
-13 -21 -12 -473 1 -486 6 -7 39 -11 80 -10 l69 1 0 130 c0 82 4 129 10 126
17 -6 50 -31 41 -31 -5 0 20 -27 54 -60 34 -33 59 -60 54 -60 -5 -1 2 -7 16
-15 14 -7 25 -17 25 -22 -1 -4 16 -22 37 -40 35 -28 44 -31 107 -31 38 0 75
-3 82 -7 8 -5 10 -4 5 3 -4 7 -2 12 5 12 7 0 -14 27 -48 60 -33 33 -59 60 -56
60 2 0 -12 14 -32 31 -19 17 -32 36 -28 42 3 5 2 8 -3 5 -5 -3 -32 19 -61 47
l-51 53 34 37 c19 21 34 42 34 47 0 5 5 6 10 3 6 -3 10 -3 10 2 0 13 46 63 59
63 6 0 10 4 9 9 -2 5 21 34 50 66 30 31 51 59 48 62 -3 3 -43 5 -89 5 -85 1
-85 1 -121 -36 -20 -21 -36 -40 -36 -42 0 -4 -13 -19 -109 -121 -22 -24 -44
-43 -48 -43 -4 0 -8 126 -8 280 0 154 -2 281 -5 281 -22 5 -139 5 -146 0z"/>
<path d="M610 1791 c0 -3 -10 -7 -22 -7 -50 -3 -78 -9 -78 -17 0 -4 -4 -6 -9
-3 -15 10 -135 -75 -143 -101 -2 -5 -7 -7 -12 -5 -5 2 -6 -4 -3 -12 4 -9 -1
-20 -11 -25 -9 -6 -14 -11 -10 -11 4 0 1 -18 -7 -39 -7 -22 -11 -41 -9 -44 3
-2 0 -16 -5 -31 -6 -14 -7 -26 -2 -26 10 0 9 -19 -2 -37 -4 -6 -3 -14 3 -18 5
-3 10 -16 10 -29 0 -12 5 -27 11 -33 9 -9 15 -29 18 -55 1 -5 8 -8 16 -8 8 0
14 -3 14 -7 -3 -20 2 -33 12 -33 7 0 19 -8 28 -18 40 -45 160 -80 263 -76 67
2 155 22 164 35 3 6 12 5 20 -2 12 -10 13 -9 8 6 -5 13 -4 16 4 11 13 -8 13
-7 17 67 3 54 -3 56 -75 31 -25 -9 -62 -18 -84 -20 -21 -2 -42 -7 -47 -10 -5
-3 -9 -1 -9 3 0 5 -15 8 -32 7 -18 -1 -39 3 -47 9 -12 9 -13 9 -7 0 4 -7 -6
-5 -23 5 -17 9 -31 21 -31 25 0 5 -4 5 -10 2 -5 -3 -10 1 -10 10 0 9 -4 13
-10 10 -5 -3 -10 3 -10 14 0 12 -5 21 -11 21 -5 0 -7 5 -4 10 3 6 2 10 -2 10
-16 0 -7 149 10 168 8 9 15 21 15 26 0 14 85 67 99 62 7 -3 13 -1 13 5 0 6 6
6 19 0 10 -6 22 -7 26 -3 9 10 85 9 85 -1 0 -5 4 -6 9 -2 13 7 95 -21 99 -35
3 -7 10 -7 23 1 12 6 17 15 12 22 -12 19 -11 57 1 57 6 0 5 4 -3 9 -7 5 -11
14 -7 20 7 11 -44 36 -93 47 -44 9 -46 9 -58 17 -7 5 -13 4 -13 -1 0 -4 -22
-6 -50 -2 -27 4 -50 4 -50 1z"/>
<path d="M2156 1793 c-2 -3 -22 -6 -43 -8 -21 -2 -40 -4 -43 -5 -3 -2 -8 -2
-12 -1 -5 0 -8 -4 -8 -10 0 -5 -5 -7 -10 -4 -6 3 -13 -1 -16 -9 -3 -9 -10 -13
-15 -11 -4 3 -17 -3 -29 -15 -27 -27 -39 -25 -36 5 4 33 -9 41 -69 39 -95 -3
-87 1 -83 -54 1 -28 1 -50 -2 -50 -3 0 -3 -27 0 -60 3 -33 3 -60 0 -60 -7 0
-4 -66 4 -79 4 -5 3 -12 -1 -14 -10 -6 -9 -130 1 -145 3 -6 2 -13 -2 -16 -8
-5 -9 -29 -2 -61 1 -5 2 -12 1 -15 -1 -3 -3 -75 -4 -161 -2 -134 0 -156 13
-154 8 1 21 -2 28 -8 8 -6 12 -6 12 2 0 7 5 9 12 5 16 -10 48 -13 48 -4 0 4
10 6 23 6 19 -1 22 4 23 40 0 22 4 46 8 52 4 7 4 12 -1 12 -10 0 -10 91 1 108
4 6 4 12 -1 12 -4 0 -8 19 -8 43 0 28 4 44 13 44 6 0 12 -5 12 -10 0 -5 7 -7
15 -3 8 3 15 1 15 -4 0 -6 7 -10 15 -10 8 0 15 -4 15 -8 0 -5 6 -9 13 -10 6 0
30 -4 52 -7 75 -13 150 -10 200 9 6 2 20 7 33 11 12 4 22 11 22 16 0 5 5 9 12
9 13 0 88 79 88 93 0 5 8 16 18 24 10 8 11 11 2 7 -12 -7 -13 -5 -3 8 7 8 10
18 6 21 -3 4 -2 7 4 7 5 0 10 6 10 13 1 6 3 38 6 70 2 32 0 60 -5 63 -7 4 -6
9 1 13 7 5 6 16 -5 35 -8 16 -12 31 -9 34 3 3 -2 14 -12 24 -9 10 -13 18 -9
18 4 0 1 6 -6 14 -7 8 -24 28 -38 45 -14 17 -30 31 -37 31 -7 0 -17 8 -22 18
-6 9 -11 14 -11 9 0 -4 -13 -1 -29 7 -16 9 -31 12 -35 9 -3 -4 -6 -2 -6 4 0 5
-12 9 -27 9 -16 -1 -40 2 -55 5 -14 4 -29 5 -32 2z m-33 -137 c-5 -8 -3 -8 8
0 19 14 59 16 59 2 0 -5 6 -8 14 -5 7 3 19 0 25 -6 6 -6 11 -7 11 -3 0 12 70
-65 71 -78 1 -6 1 -14 0 -18 0 -5 4 -8 10 -8 5 0 8 -4 4 -9 -3 -5 -2 -12 3
-15 22 -13 -13 -166 -38 -166 -5 0 -10 -7 -10 -16 0 -8 -5 -12 -10 -9 -6 3
-13 0 -16 -8 -5 -14 -17 -19 -79 -34 -36 -8 -60 -9 -66 -1 -3 4 -17 9 -32 10
-15 1 -27 6 -27 10 0 4 -6 7 -12 6 -7 -2 -12 3 -10 10 1 8 -1 11 -6 8 -12 -7
-52 31 -52 49 0 8 -5 15 -11 15 -5 0 -7 5 -4 10 3 6 3 10 -2 10 -8 0 -8 29 -2
113 2 25 13 48 34 71 30 33 74 62 88 58 4 -1 7 1 7 6 0 4 11 8 25 8 16 1 22
-2 18 -10z"/>
<path d="M4539 1796 c-2 -2 -31 -6 -63 -7 -68 -3 -136 -19 -136 -32 0 -4 -4
-6 -9 -3 -5 3 -20 -4 -35 -15 -14 -11 -26 -17 -26 -13 0 4 -16 -10 -36 -32
-34 -37 -59 -81 -56 -96 1 -5 -3 -8 -9 -8 -5 0 -7 -4 -4 -10 3 -5 2 -10 -3
-10 -4 0 -8 -43 -9 -95 0 -52 4 -95 8 -95 5 0 8 -3 7 -7 -3 -12 25 -83 33 -83
4 0 11 -9 14 -20 3 -11 13 -20 21 -20 8 0 12 -4 9 -10 -3 -5 -1 -10 5 -10 6 0
20 -9 32 -20 12 -11 30 -20 39 -20 10 0 21 -5 24 -11 4 -6 13 -8 21 -5 8 3 14
1 14 -5 0 -5 11 -7 25 -5 14 3 25 1 25 -3 0 -4 35 -6 78 -4 117 5 132 7 132
16 0 5 4 6 9 2 5 -3 12 -1 16 5 4 6 11 8 16 5 5 -4 9 -1 9 5 0 6 4 9 9 6 17
-11 33 24 35 79 3 60 -4 74 -24 50 -7 -8 -16 -12 -21 -9 -5 3 -9 0 -9 -7 0 -7
-3 -10 -6 -6 -3 3 -23 -1 -45 -8 -21 -8 -39 -12 -39 -9 0 2 -9 0 -19 -6 -14
-7 -21 -6 -24 3 -3 9 -7 9 -19 0 -8 -7 -17 -11 -20 -8 -2 3 -24 7 -48 10 -25
3 -47 9 -50 14 -3 5 -15 11 -28 15 -12 4 -20 11 -17 16 3 5 -3 11 -13 14 -10
4 -19 13 -20 21 -1 8 -3 22 -4 30 -1 8 -5 15 -8 15 -9 0 -10 111 -2 125 6 9 8
13 11 33 2 13 48 62 59 62 6 0 12 4 14 9 2 6 19 13 38 16 19 3 43 8 54 11 13
5 16 3 11 -6 -6 -9 -4 -11 6 -4 20 12 38 14 45 3 3 -5 12 -5 23 1 10 5 21 6
25 3 6 -7 29 -13 54 -15 6 -1 12 -5 12 -10 0 -5 4 -7 9 -4 5 3 11 -1 15 -9 3
-8 11 -12 19 -9 9 3 13 21 12 57 -2 75 -3 77 -26 77 -11 0 -18 4 -15 8 2 4 -7
9 -20 10 -14 1 -33 6 -44 12 -13 7 -20 6 -23 -3 -4 -9 -6 -9 -6 0 -1 7 -8 10
-17 6 -9 -3 -19 -1 -23 6 -4 6 -9 9 -12 7z"/>
<path d="M1206 1778 c3 -4 -4 -8 -16 -8 -11 0 -40 -10 -63 -22 -23 -12 -46
-21 -52 -19 -5 1 -7 0 -3 -4 4 -4 -5 -19 -20 -34 -35 -36 -63 -71 -57 -71 3 0
-1 -13 -10 -30 -9 -16 -13 -30 -9 -30 4 0 1 -7 -6 -15 -10 -12 -10 -15 1 -15
9 0 10 -3 4 -8 -11 -8 -14 -112 -3 -112 3 0 4 -9 1 -20 -3 -11 -1 -20 4 -20 5
0 10 -10 10 -22 1 -13 7 -24 13 -26 5 -2 10 -13 10 -23 0 -11 5 -17 10 -14 6
3 10 1 10 -5 0 -22 98 -95 145 -106 6 -2 21 -5 34 -8 13 -3 26 -8 29 -11 3 -2
11 0 19 6 7 6 13 7 13 2 0 -5 25 -9 55 -8 30 0 55 2 55 5 0 3 10 6 23 6 45 3
67 8 67 16 0 4 8 8 18 8 49 0 162 128 162 184 0 8 6 17 13 20 9 5 9 7 -1 12
-6 3 -9 11 -5 17 10 16 10 127 1 127 -5 0 -8 8 -8 18 0 10 -6 24 -12 31 -11
11 -10 12 1 6 8 -5 4 7 -9 26 -13 19 -28 36 -32 37 -4 2 -8 10 -8 18 0 9 -4
12 -10 9 -5 -3 -10 1 -10 9 0 9 -8 16 -19 16 -10 0 -21 7 -25 15 -3 8 -14 15
-24 15 -10 0 -23 5 -28 10 -6 6 -21 13 -35 17 -36 10 -239 11 -233 1z m146
-122 c5 -7 8 -7 8 2 0 9 7 8 25 -4 14 -9 28 -14 31 -11 7 7 51 -36 47 -45 -2
-5 1 -8 7 -8 6 0 8 -4 5 -10 -3 -5 -1 -10 5 -10 6 0 8 -4 5 -10 -3 -5 -2 -10
3 -10 5 0 9 -6 9 -12 1 -7 3 -27 6 -45 2 -18 2 -35 -1 -38 -3 -3 -7 -19 -9
-36 -4 -36 -20 -69 -33 -69 -6 0 -10 -7 -10 -16 0 -8 -4 -12 -10 -9 -5 3 -10
2 -10 -4 0 -14 -28 -28 -72 -35 -21 -3 -41 -7 -45 -8 -19 -4 -83 15 -83 25 0
6 -3 8 -6 4 -6 -6 -21 4 -47 30 -34 34 -49 62 -26 47 6 -3 3 5 -6 19 -9 15
-14 31 -10 37 3 5 0 10 -7 11 -10 0 -10 2 -1 6 9 3 10 10 3 23 -6 12 -6 21 -1
25 6 3 8 14 6 25 -2 11 -1 20 3 20 4 0 15 18 25 40 9 23 22 38 27 35 6 -3 10
-1 10 4 0 6 7 11 15 11 8 0 15 5 15 11 0 5 4 8 9 4 5 -3 12 -2 15 3 7 12 90
10 98 -2z"/>
<path d="M3576 1765 c-117 -48 -178 -142 -182 -279 -4 -171 73 -273 238 -315
88 -22 237 -17 324 11 l39 13 0 58 c1 33 -3 57 -10 57 -5 -1 -37 -7 -69 -15
-87 -21 -240 -15 -291 10 -35 18 -85 74 -85 96 0 5 115 9 256 9 l255 0 -2 73
c-4 132 -51 215 -151 268 -57 30 -72 33 -163 36 -87 2 -108 -1 -159 -22z m242
-119 c40 -21 71 -58 78 -94 l7 -32 -176 0 c-109 0 -178 4 -182 10 -10 16 26
81 57 103 49 36 160 42 216 13z"/>
</g>
</svg>
